# xmcd CD database file
#
# Track frame offsets:
#	151
#	26143
#	67165
#	97767
#	123178
#	142696
#	174772
#	206894
#	225816
#	271983
#	312654
#
# Disc length: 4287 seconds
#
# Revision: 0
# Processed by: cddbd v1.5.2PL0 Copyright (c) Steve Scherf et al.
# Submitted via: CDex 1.51
#
DISCID=8d10bd0b
DTITLE=Casinolights - Casinolights II
DYEAR=1991
DGENRE=Jazz
TTITLE0=Al Jarreau -Your Song
TTITLE1=Larry Carlton-Room 335
TTITLE2=David Sanborn -Lotus Blossom
TTITLE3=Randy Crawford-Rainy Night In Georgia 
TTITLE4=Neal Larsen Band-The Vision
TTITLE5=Al Jarreau -Roof Garden
TTITLE6=Yellowjackets-Imperial Strut
TTITLE7=Randy Crawford-You Might Need Somebody
TTITLE8=Mike Mainieri-Flying Colors
TTITLE9=Chick Corea Quartet-Folk Song
TTITLE10=Al Jarreau and Randy Crawford-Sure Enough
EXTD=YEAR: 1991
EXTT0=
EXTT1=
EXTT2=
EXTT3=
EXTT4=
EXTT5=
EXTT6=
EXTT7=
EXTT8=
EXTT9=
EXTT10=
PLAYORDER=
